<?xml version="1.0" encoding="UTF-8" standalone="no"?>
<!DOCTYPE svg PUBLIC "-//W3C//DTD SVG 1.1//EN"
 "http://www.w3.org/Graphics/SVG/1.1/DTD/svg11.dtd">
<!-- Generated by graphviz version 3.0.0 (20220226.1711)
 -->
<!-- Title: G Pages: 1 -->
<svg width="1379pt" height="779pt"
 viewBox="0.00 0.00 1378.50 779.06" xmlns="http://www.w3.org/2000/svg" xmlns:xlink="http://www.w3.org/1999/xlink">
<g id="graph0" class="graph" transform="scale(1 1) rotate(0) translate(4 775.06)">
<title>G</title>
<polygon fill="white" stroke="transparent" points="-4,4 -4,-775.06 1374.5,-775.06 1374.5,4 -4,4"/>
<!-- trust -->
<g id="node1" class="node">
<title>trust</title>
<ellipse fill="#cae6df" stroke="black" cx="1045.5" cy="-595.32" rx="26.8" ry="26.8"/>
<text text-anchor="middle" x="1045.5" y="-591.62" font-family="Times,serif" font-size="14.00">trust</text>
</g>
<!-- behaviour -->
<g id="node5" class="node">
<title>behaviour</title>
<ellipse fill="#cae6df" stroke="black" cx="558.5" cy="-144.15" rx="46.29" ry="46.29"/>
<text text-anchor="middle" x="558.5" y="-140.45" font-family="Times,serif" font-size="14.00">behaviour</text>
</g>
<!-- trust&#45;&gt;behaviour -->
<g id="edge6" class="edge">
<title>trust&#45;&gt;behaviour</title>
<path fill="none" stroke="black" d="M1057.77,-571.18C1087.83,-510.98 1157.18,-347.57 1079.5,-252.29 1021.31,-180.92 737.58,-155.72 615.04,-148.07"/>
<polygon fill="black" stroke="black" points="614.94,-144.56 604.75,-147.45 614.52,-151.55 614.94,-144.56"/>
<text text-anchor="middle" x="1139.5" y="-339.99" font-family="Times,serif" font-size="12.00">0.208</text>
<text text-anchor="middle" x="1139.5" y="-326.99" font-family="Times,serif" font-size="12.00">p&#45;val: 0.06</text>
</g>
<!-- privacy_concern -->
<g id="node6" class="node">
<title>privacy_concern</title>
<ellipse fill="#cae6df" stroke="black" cx="888.5" cy="-437.13" rx="69.59" ry="69.59"/>
<text text-anchor="middle" x="888.5" y="-433.43" font-family="Times,serif" font-size="14.00">privacy_concern</text>
</g>
<!-- trust&#45;&gt;privacy_concern -->
<g id="edge2" class="edge">
<title>trust&#45;&gt;privacy_concern</title>
<path fill="none" stroke="black" d="M1026.87,-575.79C1006.66,-555.68 973.39,-522.59 944.55,-493.89"/>
<polygon fill="black" stroke="black" points="946.88,-491.27 937.32,-486.7 941.94,-496.23 946.88,-491.27"/>
<text text-anchor="middle" x="1024.5" y="-541.07" font-family="Times,serif" font-size="12.00">&#45;0.307</text>
<text text-anchor="middle" x="1024.5" y="-528.07" font-family="Times,serif" font-size="12.00">p&#45;val: 0.00</text>
</g>
<!-- doubt_hc -->
<g id="node11" class="node">
<title>doubt_hc</title>
<polygon fill="none" stroke="black" points="1194,-455.13 1127,-455.13 1127,-419.13 1194,-419.13 1194,-455.13"/>
<text text-anchor="middle" x="1160.5" y="-433.43" font-family="Times,serif" font-size="14.00">doubt_hc</text>
</g>
<!-- trust&#45;&gt;doubt_hc -->
<g id="edge16" class="edge">
<title>trust&#45;&gt;doubt_hc</title>
<path fill="none" stroke="black" d="M1066.59,-578.8C1071.43,-575.38 1076.6,-571.83 1081.5,-568.67 1094.89,-560.04 1101.95,-562.61 1112.5,-550.67 1134.41,-525.89 1147.43,-489.6 1154.26,-464.99"/>
<polygon fill="black" stroke="black" points="1157.67,-465.78 1156.82,-455.22 1150.9,-464.01 1157.67,-465.78"/>
<text text-anchor="middle" x="1155.5" y="-541.07" font-family="Times,serif" font-size="12.00">0.104</text>
<text text-anchor="middle" x="1155.5" y="-528.07" font-family="Times,serif" font-size="12.00">p&#45;val: 0.38</text>
</g>
<!-- govern_trust_hc -->
<g id="node13" class="node">
<title>govern_trust_hc</title>
<polygon fill="none" stroke="black" points="1316.5,-455.13 1212.5,-455.13 1212.5,-419.13 1316.5,-419.13 1316.5,-455.13"/>
<text text-anchor="middle" x="1264.5" y="-433.43" font-family="Times,serif" font-size="14.00">govern_trust_hc</text>
</g>
<!-- trust&#45;&gt;govern_trust_hc -->
<g id="edge15" class="edge">
<title>trust&#45;&gt;govern_trust_hc</title>
<path fill="none" stroke="black" d="M1065.5,-577.71C1070.48,-574.26 1075.98,-570.98 1081.5,-568.67 1124.79,-550.61 1145.88,-575.79 1185.5,-550.67 1217.86,-530.16 1240.69,-491.13 1253.23,-464.87"/>
<polygon fill="black" stroke="black" points="1256.54,-466.04 1257.53,-455.49 1250.18,-463.12 1256.54,-466.04"/>
<text text-anchor="middle" x="1239.5" y="-541.07" font-family="Times,serif" font-size="12.00">1.066</text>
<text text-anchor="middle" x="1239.5" y="-528.07" font-family="Times,serif" font-size="12.00">p&#45;val: 0.00</text>
</g>
<!-- govern_trust_pub -->
<g id="node14" class="node">
<title>govern_trust_pub</title>
<polygon fill="none" stroke="black" points="800.5,-455.13 688.5,-455.13 688.5,-419.13 800.5,-419.13 800.5,-455.13"/>
<text text-anchor="middle" x="744.5" y="-433.43" font-family="Times,serif" font-size="14.00">govern_trust_pub</text>
</g>
<!-- trust&#45;&gt;govern_trust_pub -->
<g id="edge14" class="edge">
<title>trust&#45;&gt;govern_trust_pub</title>
<path fill="none" stroke="black" d="M1019.63,-588.81C974.21,-578.28 878.43,-552.2 809.5,-506.67 791.77,-494.96 775.34,-477.55 763.43,-463.2"/>
<polygon fill="black" stroke="black" points="765.96,-460.77 756.96,-455.18 760.51,-465.16 765.96,-460.77"/>
<text text-anchor="middle" x="909.5" y="-534.57" font-family="Times,serif" font-size="12.00">1.000</text>
</g>
<!-- emo -->
<g id="node2" class="node">
<title>emo</title>
<ellipse fill="#cae6df" stroke="black" cx="364.5" cy="-278.94" rx="26.8" ry="26.8"/>
<text text-anchor="middle" x="364.5" y="-275.24" font-family="Times,serif" font-size="14.00">emo</text>
</g>
<!-- emo&#45;&gt;behaviour -->
<g id="edge9" class="edge">
<title>emo&#45;&gt;behaviour</title>
<path fill="none" stroke="black" d="M385.28,-262.08C395.33,-254.1 407.38,-244.06 417.5,-234.29 428.6,-223.58 428.4,-217.86 440.5,-208.29 460.75,-192.28 485.66,-178.27 507.36,-167.54"/>
<polygon fill="black" stroke="black" points="508.96,-170.65 516.44,-163.15 505.92,-164.35 508.96,-170.65"/>
<text text-anchor="middle" x="466.5" y="-224.69" font-family="Times,serif" font-size="12.00">0.346</text>
<text text-anchor="middle" x="466.5" y="-211.69" font-family="Times,serif" font-size="12.00">p&#45;val: 0.00</text>
</g>
<!-- dislike_hc -->
<g id="node9" class="node">
<title>dislike_hc</title>
<polygon fill="none" stroke="black" points="325.5,-162.15 253.5,-162.15 253.5,-126.15 325.5,-126.15 325.5,-162.15"/>
<text text-anchor="middle" x="289.5" y="-140.45" font-family="Times,serif" font-size="14.00">dislike_hc</text>
</g>
<!-- emo&#45;&gt;dislike_hc -->
<g id="edge28" class="edge">
<title>emo&#45;&gt;dislike_hc</title>
<path fill="none" stroke="black" d="M343.22,-262.48C327.19,-250.74 307.74,-236.28 306.5,-234.29 294.94,-215.73 290.92,-191.1 289.66,-172.43"/>
<polygon fill="black" stroke="black" points="293.14,-172.05 289.2,-162.22 286.15,-172.37 293.14,-172.05"/>
<text text-anchor="middle" x="332.5" y="-224.69" font-family="Times,serif" font-size="12.00">&#45;0.538</text>
<text text-anchor="middle" x="332.5" y="-211.69" font-family="Times,serif" font-size="12.00">p&#45;val: 0.00</text>
</g>
<!-- diss_manda_hc -->
<g id="node10" class="node">
<title>diss_manda_hc</title>
<polygon fill="none" stroke="black" points="445,-162.15 344,-162.15 344,-126.15 445,-126.15 445,-162.15"/>
<text text-anchor="middle" x="394.5" y="-140.45" font-family="Times,serif" font-size="14.00">diss_manda_hc</text>
</g>
<!-- emo&#45;&gt;diss_manda_hc -->
<g id="edge27" class="edge">
<title>emo&#45;&gt;diss_manda_hc</title>
<path fill="none" stroke="black" d="M362.35,-252.17C361.87,-238.9 362.27,-222.56 365.5,-208.29 368.36,-195.64 373.93,-182.48 379.44,-171.47"/>
<polygon fill="black" stroke="black" points="382.64,-172.89 384.18,-162.41 376.44,-169.64 382.64,-172.89"/>
<text text-anchor="middle" x="391.5" y="-224.69" font-family="Times,serif" font-size="12.00">&#45;0.518</text>
<text text-anchor="middle" x="391.5" y="-211.69" font-family="Times,serif" font-size="12.00">p&#45;val: 0.00</text>
</g>
<!-- satis_grade -->
<g id="node20" class="node">
<title>satis_grade</title>
<polygon fill="none" stroke="black" points="145,-162.15 68,-162.15 68,-126.15 145,-126.15 145,-162.15"/>
<text text-anchor="middle" x="106.5" y="-140.45" font-family="Times,serif" font-size="14.00">satis_grade</text>
</g>
<!-- emo&#45;&gt;satis_grade -->
<g id="edge26" class="edge">
<title>emo&#45;&gt;satis_grade</title>
<path fill="none" stroke="black" d="M344.58,-261.13C339.6,-257.69 334.08,-254.46 328.5,-252.29 267.56,-228.6 240.07,-265.28 182.5,-234.29 155.67,-219.85 134.21,-191.78 121.03,-170.98"/>
<polygon fill="black" stroke="black" points="123.92,-169 115.73,-162.29 117.95,-172.65 123.92,-169"/>
<text text-anchor="middle" x="208.5" y="-224.69" font-family="Times,serif" font-size="12.00">0.928</text>
<text text-anchor="middle" x="208.5" y="-211.69" font-family="Times,serif" font-size="12.00">p&#45;val: 0.00</text>
</g>
<!-- satis_used -->
<g id="node21" class="node">
<title>satis_used</title>
<polygon fill="none" stroke="black" points="235.5,-162.15 163.5,-162.15 163.5,-126.15 235.5,-126.15 235.5,-162.15"/>
<text text-anchor="middle" x="199.5" y="-140.45" font-family="Times,serif" font-size="14.00">satis_used</text>
</g>
<!-- emo&#45;&gt;satis_used -->
<g id="edge25" class="edge">
<title>emo&#45;&gt;satis_used</title>
<path fill="none" stroke="black" d="M343.94,-261.47C339.07,-258.09 333.76,-254.81 328.5,-252.29 301.85,-239.53 288.76,-251.16 264.5,-234.29 241.42,-218.25 223.44,-191.3 212.3,-171.23"/>
<polygon fill="black" stroke="black" points="215.32,-169.45 207.53,-162.28 209.14,-172.75 215.32,-169.45"/>
<text text-anchor="middle" x="278.5" y="-218.19" font-family="Times,serif" font-size="12.00">1.000</text>
</g>
<!-- policy_effect -->
<g id="node3" class="node">
<title>policy_effect</title>
<ellipse fill="#cae6df" stroke="black" cx="244.5" cy="-437.13" rx="57.39" ry="57.39"/>
<text text-anchor="middle" x="244.5" y="-433.43" font-family="Times,serif" font-size="14.00">policy_effect</text>
</g>
<!-- policy_effect&#45;&gt;emo -->
<g id="edge3" class="edge">
<title>policy_effect&#45;&gt;emo</title>
<path fill="none" stroke="black" d="M287.27,-398.54C302.1,-384.17 318.1,-367.02 330.5,-349.59 338.44,-338.43 345.44,-325.13 350.99,-313.16"/>
<polygon fill="black" stroke="black" points="354.24,-314.47 355.13,-303.91 347.85,-311.61 354.24,-314.47"/>
<text text-anchor="middle" x="372.5" y="-339.99" font-family="Times,serif" font-size="12.00">0.783</text>
<text text-anchor="middle" x="372.5" y="-326.99" font-family="Times,serif" font-size="12.00">p&#45;val: 0.00</text>
</g>
<!-- policy_effect&#45;&gt;behaviour -->
<g id="edge7" class="edge">
<title>policy_effect&#45;&gt;behaviour</title>
<path fill="none" stroke="black" d="M296.92,-414.05C329.4,-398.84 370.81,-376.53 402.5,-349.59 455.76,-304.31 502.22,-237.95 530.28,-193.23"/>
<polygon fill="black" stroke="black" points="533.34,-194.93 535.64,-184.58 527.4,-191.24 533.34,-194.93"/>
<text text-anchor="middle" x="514.5" y="-282.34" font-family="Times,serif" font-size="12.00">0.270</text>
<text text-anchor="middle" x="514.5" y="-269.34" font-family="Times,serif" font-size="12.00">p&#45;val: 0.05</text>
</g>
<!-- benef_hc -->
<g id="node7" class="node">
<title>benef_hc</title>
<polygon fill="none" stroke="black" points="319.5,-296.94 253.5,-296.94 253.5,-260.94 319.5,-260.94 319.5,-296.94"/>
<text text-anchor="middle" x="286.5" y="-275.24" font-family="Times,serif" font-size="14.00">benef_hc</text>
</g>
<!-- policy_effect&#45;&gt;benef_hc -->
<g id="edge18" class="edge">
<title>policy_effect&#45;&gt;benef_hc</title>
<path fill="none" stroke="black" d="M259.19,-381.5C265.96,-356.33 273.69,-327.58 279.2,-307.1"/>
<polygon fill="black" stroke="black" points="282.64,-307.78 281.85,-297.21 275.88,-305.96 282.64,-307.78"/>
<text text-anchor="middle" x="300.5" y="-339.99" font-family="Times,serif" font-size="12.00">1.038</text>
<text text-anchor="middle" x="300.5" y="-326.99" font-family="Times,serif" font-size="12.00">p&#45;val: 0.00</text>
</g>
<!-- effec_hc -->
<g id="node12" class="node">
<title>effec_hc</title>
<polygon fill="none" stroke="black" points="63,-296.94 0,-296.94 0,-260.94 63,-260.94 63,-296.94"/>
<text text-anchor="middle" x="31.5" y="-275.24" font-family="Times,serif" font-size="14.00">effec_hc</text>
</g>
<!-- policy_effect&#45;&gt;effec_hc -->
<g id="edge19" class="edge">
<title>policy_effect&#45;&gt;effec_hc</title>
<path fill="none" stroke="black" d="M191.65,-414.48C158.66,-399.36 116.53,-377.01 84.5,-349.59 69.78,-336.98 56.57,-319.65 47.02,-305.43"/>
<polygon fill="black" stroke="black" points="49.96,-303.52 41.57,-297.05 44.09,-307.34 49.96,-303.52"/>
<text text-anchor="middle" x="110.5" y="-339.99" font-family="Times,serif" font-size="12.00">0.979</text>
<text text-anchor="middle" x="110.5" y="-326.99" font-family="Times,serif" font-size="12.00">p&#45;val: 0.00</text>
</g>
<!-- matur_hc -->
<g id="node16" class="node">
<title>matur_hc</title>
<polygon fill="none" stroke="black" points="149.5,-296.94 81.5,-296.94 81.5,-260.94 149.5,-260.94 149.5,-296.94"/>
<text text-anchor="middle" x="115.5" y="-275.24" font-family="Times,serif" font-size="14.00">matur_hc</text>
</g>
<!-- policy_effect&#45;&gt;matur_hc -->
<g id="edge20" class="edge">
<title>policy_effect&#45;&gt;matur_hc</title>
<path fill="none" stroke="black" d="M202.66,-397.85C187.93,-383.4 171.75,-366.39 158.5,-349.59 147.71,-335.9 137.38,-319.33 129.56,-305.79"/>
<polygon fill="black" stroke="black" points="132.54,-303.95 124.56,-296.97 126.44,-307.4 132.54,-303.95"/>
<text text-anchor="middle" x="184.5" y="-339.99" font-family="Times,serif" font-size="12.00">0.952</text>
<text text-anchor="middle" x="184.5" y="-326.99" font-family="Times,serif" font-size="12.00">p&#45;val: 0.00</text>
</g>
<!-- smart_hc -->
<g id="node23" class="node">
<title>smart_hc</title>
<polygon fill="none" stroke="black" points="235,-296.94 168,-296.94 168,-260.94 235,-260.94 235,-296.94"/>
<text text-anchor="middle" x="201.5" y="-275.24" font-family="Times,serif" font-size="14.00">smart_hc</text>
</g>
<!-- policy_effect&#45;&gt;smart_hc -->
<g id="edge17" class="edge">
<title>policy_effect&#45;&gt;smart_hc</title>
<path fill="none" stroke="black" d="M229.46,-381.5C222.53,-356.33 214.61,-327.58 208.98,-307.1"/>
<polygon fill="black" stroke="black" points="212.28,-305.93 206.26,-297.21 205.54,-307.78 212.28,-305.93"/>
<text text-anchor="middle" x="234.5" y="-333.49" font-family="Times,serif" font-size="12.00">1.000</text>
</g>
<!-- informed -->
<g id="node4" class="node">
<title>informed</title>
<ellipse fill="#cae6df" stroke="black" cx="1159.5" cy="-727.52" rx="43.59" ry="43.59"/>
<text text-anchor="middle" x="1159.5" y="-723.82" font-family="Times,serif" font-size="14.00">informed</text>
</g>
<!-- informed&#45;&gt;trust -->
<g id="edge1" class="edge">
<title>informed&#45;&gt;trust</title>
<path fill="none" stroke="black" d="M1119.29,-709.83C1099.77,-699.81 1077.56,-685.23 1063.5,-665.97 1056.32,-656.14 1052,-643.7 1049.4,-632.06"/>
<polygon fill="black" stroke="black" points="1052.82,-631.31 1047.53,-622.13 1045.94,-632.6 1052.82,-631.31"/>
<text text-anchor="middle" x="1089.5" y="-656.37" font-family="Times,serif" font-size="12.00">0.863</text>
<text text-anchor="middle" x="1089.5" y="-643.37" font-family="Times,serif" font-size="12.00">p&#45;val: 0.00</text>
</g>
<!-- informed&#45;&gt;behaviour -->
<g id="edge5" class="edge">
<title>informed&#45;&gt;behaviour</title>
<path fill="none" stroke="black" d="M1115.79,-726.37C977.49,-724.75 558.5,-710.42 558.5,-596.32 558.5,-596.32 558.5,-596.32 558.5,-277.94 558.5,-252.53 558.5,-224.4 558.5,-200.59"/>
<polygon fill="black" stroke="black" points="562,-200.32 558.5,-190.32 555,-200.32 562,-200.32"/>
<text text-anchor="middle" x="584.5" y="-440.53" font-family="Times,serif" font-size="12.00">&#45;0.249</text>
<text text-anchor="middle" x="584.5" y="-427.53" font-family="Times,serif" font-size="12.00">p&#45;val: 0.17</text>
</g>
<!-- big_data -->
<g id="node8" class="node">
<title>big_data</title>
<polygon fill="none" stroke="black" points="1153,-613.32 1090,-613.32 1090,-577.32 1153,-577.32 1153,-613.32"/>
<text text-anchor="middle" x="1121.5" y="-591.62" font-family="Times,serif" font-size="14.00">big_data</text>
</g>
<!-- informed&#45;&gt;big_data -->
<g id="edge12" class="edge">
<title>informed&#45;&gt;big_data</title>
<path fill="none" stroke="black" d="M1135.22,-690.98C1130.89,-683.06 1126.98,-674.48 1124.5,-665.97 1120.56,-652.44 1119.58,-636.82 1119.69,-623.8"/>
<polygon fill="black" stroke="black" points="1123.19,-623.68 1119.99,-613.58 1116.19,-623.47 1123.19,-623.68"/>
<text text-anchor="middle" x="1150.5" y="-656.37" font-family="Times,serif" font-size="12.00">1.146</text>
<text text-anchor="middle" x="1150.5" y="-643.37" font-family="Times,serif" font-size="12.00">p&#45;val: 0.00</text>
</g>
<!-- motiv -->
<g id="node17" class="node">
<title>motiv</title>
<polygon fill="none" stroke="black" points="1225.5,-613.32 1171.5,-613.32 1171.5,-577.32 1225.5,-577.32 1225.5,-613.32"/>
<text text-anchor="middle" x="1198.5" y="-591.62" font-family="Times,serif" font-size="14.00">motiv</text>
</g>
<!-- informed&#45;&gt;motiv -->
<g id="edge10" class="edge">
<title>informed&#45;&gt;motiv</title>
<path fill="none" stroke="black" d="M1171.73,-685.68C1177.85,-665.26 1185.08,-641.13 1190.48,-623.09"/>
<polygon fill="black" stroke="black" points="1193.84,-624.09 1193.35,-613.51 1187.13,-622.08 1193.84,-624.09"/>
<text text-anchor="middle" x="1198.5" y="-649.87" font-family="Times,serif" font-size="12.00">1.000</text>
</g>
<!-- pcp -->
<g id="node18" class="node">
<title>pcp</title>
<polygon fill="none" stroke="black" points="1297.5,-613.32 1243.5,-613.32 1243.5,-577.32 1297.5,-577.32 1297.5,-613.32"/>
<text text-anchor="middle" x="1270.5" y="-591.62" font-family="Times,serif" font-size="14.00">pcp</text>
</g>
<!-- informed&#45;&gt;pcp -->
<g id="edge13" class="edge">
<title>informed&#45;&gt;pcp</title>
<path fill="none" stroke="black" d="M1189.67,-695.62C1198.5,-686.26 1208.06,-675.85 1216.5,-665.97 1228.65,-651.76 1241.51,-635.24 1251.63,-621.86"/>
<polygon fill="black" stroke="black" points="1254.64,-623.67 1257.85,-613.57 1249.05,-619.47 1254.64,-623.67"/>
<text text-anchor="middle" x="1261.5" y="-656.37" font-family="Times,serif" font-size="12.00">1.149</text>
<text text-anchor="middle" x="1261.5" y="-643.37" font-family="Times,serif" font-size="12.00">p&#45;val: 0.00</text>
</g>
<!-- priv -->
<g id="node19" class="node">
<title>priv</title>
<polygon fill="none" stroke="black" points="1370.5,-613.32 1316.5,-613.32 1316.5,-577.32 1370.5,-577.32 1370.5,-613.32"/>
<text text-anchor="middle" x="1343.5" y="-591.62" font-family="Times,serif" font-size="14.00">priv</text>
</g>
<!-- informed&#45;&gt;priv -->
<g id="edge11" class="edge">
<title>informed&#45;&gt;priv</title>
<path fill="none" stroke="black" d="M1200.83,-713.62C1228.46,-703.61 1264.54,-687.76 1291.5,-665.97 1306.42,-653.91 1319.35,-636.65 1328.58,-622.33"/>
<polygon fill="black" stroke="black" points="1331.81,-623.77 1334.1,-613.43 1325.86,-620.08 1331.81,-623.77"/>
<text text-anchor="middle" x="1341.5" y="-656.37" font-family="Times,serif" font-size="12.00">1.001</text>
<text text-anchor="middle" x="1341.5" y="-643.37" font-family="Times,serif" font-size="12.00">p&#45;val: 0.00</text>
</g>
<!-- used_after -->
<g id="node25" class="node">
<title>used_after</title>
<polygon fill="none" stroke="black" points="550,-36 477,-36 477,0 550,0 550,-36"/>
<text text-anchor="middle" x="513.5" y="-14.3" font-family="Times,serif" font-size="14.00">used_after</text>
</g>
<!-- behaviour&#45;&gt;used_after -->
<g id="edge30" class="edge">
<title>behaviour&#45;&gt;used_after</title>
<path fill="none" stroke="black" d="M536.41,-103.41C532.74,-95.79 529.24,-87.76 526.5,-80 522.69,-69.2 519.81,-56.92 517.74,-46.21"/>
<polygon fill="black" stroke="black" points="521.14,-45.38 515.94,-36.15 514.25,-46.61 521.14,-45.38"/>
<text text-anchor="middle" x="552.5" y="-70.4" font-family="Times,serif" font-size="12.00">1.304</text>
<text text-anchor="middle" x="552.5" y="-57.4" font-family="Times,serif" font-size="12.00">p&#45;val: 0.00</text>
</g>
<!-- used_now -->
<g id="node26" class="node">
<title>used_now</title>
<polygon fill="none" stroke="black" points="639,-36 568,-36 568,0 639,0 639,-36"/>
<text text-anchor="middle" x="603.5" y="-14.3" font-family="Times,serif" font-size="14.00">used_now</text>
</g>
<!-- behaviour&#45;&gt;used_now -->
<g id="edge29" class="edge">
<title>behaviour&#45;&gt;used_now</title>
<path fill="none" stroke="black" d="M573.99,-100.42C580.54,-82.36 587.96,-61.86 593.73,-45.95"/>
<polygon fill="black" stroke="black" points="597.14,-46.83 597.25,-36.23 590.56,-44.44 597.14,-46.83"/>
<text text-anchor="middle" x="604.5" y="-63.9" font-family="Times,serif" font-size="12.00">1.000</text>
</g>
<!-- privacy_concern&#45;&gt;emo -->
<g id="edge4" class="edge">
<title>privacy_concern&#45;&gt;emo</title>
<path fill="none" stroke="black" d="M840.36,-386.25C830.82,-378.84 820.38,-372.17 809.5,-367.59 720.31,-330.02 687.54,-367.83 592.5,-349.59 522.21,-336.1 442.85,-309.05 398.74,-292.92"/>
<polygon fill="black" stroke="black" points="399.95,-289.64 389.36,-289.46 397.53,-296.2 399.95,-289.64"/>
<text text-anchor="middle" x="618.5" y="-339.99" font-family="Times,serif" font-size="12.00">&#45;0.317</text>
<text text-anchor="middle" x="618.5" y="-326.99" font-family="Times,serif" font-size="12.00">p&#45;val: 0.00</text>
</g>
<!-- privacy_concern&#45;&gt;behaviour -->
<g id="edge8" class="edge">
<title>privacy_concern&#45;&gt;behaviour</title>
<path fill="none" stroke="black" d="M838.95,-387.88C829.65,-380.39 819.64,-373.27 809.5,-367.59 769.64,-345.27 646.19,-337.5 613.5,-305.59 597.98,-290.43 582.1,-239.57 571.42,-199.12"/>
<polygon fill="black" stroke="black" points="574.79,-198.16 568.89,-189.36 568.01,-199.92 574.79,-198.16"/>
<text text-anchor="middle" x="639.5" y="-282.34" font-family="Times,serif" font-size="12.00">&#45;0.070</text>
<text text-anchor="middle" x="639.5" y="-269.34" font-family="Times,serif" font-size="12.00">p&#45;val: 0.22</text>
</g>
<!-- govern_viola_priv -->
<g id="node15" class="node">
<title>govern_viola_priv</title>
<polygon fill="none" stroke="black" points="880.5,-296.94 764.5,-296.94 764.5,-260.94 880.5,-260.94 880.5,-296.94"/>
<text text-anchor="middle" x="822.5" y="-275.24" font-family="Times,serif" font-size="14.00">govern_viola_priv</text>
</g>
<!-- privacy_concern&#45;&gt;govern_viola_priv -->
<g id="edge21" class="edge">
<title>privacy_concern&#45;&gt;govern_viola_priv</title>
<path fill="none" stroke="black" d="M861.66,-372.6C851.9,-349.51 841.4,-324.66 833.73,-306.52"/>
<polygon fill="black" stroke="black" points="836.9,-305.03 829.78,-297.18 830.45,-307.75 836.9,-305.03"/>
<text text-anchor="middle" x="866.5" y="-333.49" font-family="Times,serif" font-size="12.00">1.000</text>
</g>
<!-- sec_hand_used -->
<g id="node22" class="node">
<title>sec_hand_used</title>
<polygon fill="none" stroke="black" points="996.5,-296.94 898.5,-296.94 898.5,-260.94 996.5,-260.94 996.5,-296.94"/>
<text text-anchor="middle" x="947.5" y="-275.24" font-family="Times,serif" font-size="14.00">sec_hand_used</text>
</g>
<!-- privacy_concern&#45;&gt;sec_hand_used -->
<g id="edge23" class="edge">
<title>privacy_concern&#45;&gt;sec_hand_used</title>
<path fill="none" stroke="black" d="M912.84,-371.7C921.48,-348.83 930.72,-324.35 937.49,-306.44"/>
<polygon fill="black" stroke="black" points="940.81,-307.55 941.07,-296.96 934.26,-305.07 940.81,-307.55"/>
<text text-anchor="middle" x="956.5" y="-339.99" font-family="Times,serif" font-size="12.00">1.451</text>
<text text-anchor="middle" x="956.5" y="-326.99" font-family="Times,serif" font-size="12.00">p&#45;val: 0.00</text>
</g>
<!-- unnece -->
<g id="node24" class="node">
<title>unnece</title>
<polygon fill="none" stroke="black" points="1070,-296.94 1015,-296.94 1015,-260.94 1070,-260.94 1070,-296.94"/>
<text text-anchor="middle" x="1042.5" y="-275.24" font-family="Times,serif" font-size="14.00">unnece</text>
</g>
<!-- privacy_concern&#45;&gt;unnece -->
<g id="edge22" class="edge">
<title>privacy_concern&#45;&gt;unnece</title>
<path fill="none" stroke="black" d="M941.64,-392.12C956.63,-378.94 972.63,-364.12 986.5,-349.59 999.81,-335.65 1013.39,-318.84 1023.84,-305.22"/>
<polygon fill="black" stroke="black" points="1026.66,-307.3 1029.91,-297.22 1021.08,-303.07 1026.66,-307.3"/>
<text text-anchor="middle" x="1034.5" y="-339.99" font-family="Times,serif" font-size="12.00">1.320</text>
<text text-anchor="middle" x="1034.5" y="-326.99" font-family="Times,serif" font-size="12.00">p&#45;val: 0.00</text>
</g>
<!-- viola_priv -->
<g id="node27" class="node">
<title>viola_priv</title>
<polygon fill="none" stroke="black" points="746.5,-296.94 674.5,-296.94 674.5,-260.94 746.5,-260.94 746.5,-296.94"/>
<text text-anchor="middle" x="710.5" y="-275.24" font-family="Times,serif" font-size="14.00">viola_priv</text>
</g>
<!-- privacy_concern&#45;&gt;viola_priv -->
<g id="edge24" class="edge">
<title>privacy_concern&#45;&gt;viola_priv</title>
<path fill="none" stroke="black" d="M836.55,-390.4C827.59,-382.71 818.33,-374.86 809.5,-367.59 799.48,-359.33 796.4,-357.98 786.5,-349.59 769.22,-334.94 750.45,-317.76 735.89,-304.12"/>
<polygon fill="black" stroke="black" points="737.95,-301.25 728.26,-296.95 733.15,-306.35 737.95,-301.25"/>
<text text-anchor="middle" x="812.5" y="-339.99" font-family="Times,serif" font-size="12.00">1.372</text>
<text text-anchor="middle" x="812.5" y="-326.99" font-family="Times,serif" font-size="12.00">p&#45;val: 0.00</text>
</g>
</g>
</svg>
